<?xml version="1.0" ?><!DOCTYPE svg  PUBLIC '-//W3C//DTD SVG 1.1//EN'  'http://www.w3.org/Graphics/SVG/1.1/DTD/svg11.dtd'><svg height="40px" id="el_x5F_Basic" style="enable-background:new 0 0 40 40;" version="1.1" viewBox="0 0 40 40" width="40px" xml:space="preserve" xmlns="http://www.w3.org/2000/svg" xmlns:xlink="http://www.w3.org/1999/xlink"><path d="M33.482,20.985H6.488c-0.824,0-1.5,0.674-1.5,1.499v0c0,0.825,0.676,1.499,1.5,1.499h3.5v12.995h19.996V23.983h3.498  c0.826,0,1.5-0.674,1.5-1.499v0C34.982,21.659,34.309,20.985,33.482,20.985z M24.984,14.607V2.492c0-0.824-0.674-1.499-1.498-1.499  h-0.002c-0.824,0-1.5,0.674-1.5,1.499v10.707c-0.639-0.155-1.309-0.237-1.998-0.237c-0.691,0-1.361,0.083-2,0.237V2.492  c0-0.824-0.676-1.499-1.5-1.499s-1.5,0.674-1.5,1.499v12.115c-1.438,1.081-2.469,2.619-2.844,4.378h15.686  C27.455,17.226,26.422,15.688,24.984,14.607z M16.986,17.959c-0.551,0-1-0.448-1-1s0.449-1,1-1c0.553,0,1,0.448,1,1  S17.539,17.959,16.986,17.959z M22.848,17.959c-0.551,0-1-0.448-1-1s0.449-1,1-1c0.553,0,1,0.448,1,1S23.4,17.959,22.848,17.959z"/></svg>