<?xml version="1.0" encoding="utf-8"?>
<!-- Generator: Adobe Illustrator 17.0.2, SVG Export Plug-In . SVG Version: 6.00 Build 0)  -->
<!DOCTYPE svg PUBLIC "-//W3C//DTD SVG 1.1//EN" "http://www.w3.org/Graphics/SVG/1.1/DTD/svg11.dtd">
<svg version="1.1" id="Layer_1" xmlns="http://www.w3.org/2000/svg" xmlns:xlink="http://www.w3.org/1999/xlink" x="0px" y="0px"
	 width="612px" height="612px" viewBox="0 90 612 612" enable-background="new 0 90 612 612" xml:space="preserve">
<g id="Layer_14">
	<path d="M306,90C137.002,90,0,227.005,0,396s137.002,306,306,306c168.995,0,306-137.005,306-306S474.995,90,306,90z
		 M343.82,272.137c5.172-0.483,2.198-4.792,5.92-5.24c-0.036-0.2,6.288,3.2,6.925,3.311c0.029,1.446-0.798,1.865-2.423,1.235
		c0.043,1.979-0.379,7.759,1.271,8.758c-1.743-0.175-9.807,8.658-11.779,2.015c6.6,1.417-0.111-7.004-0.204-7.702
		C346.618,274.181,344.052,273.676,343.82,272.137z M353.104,249.242c0.866-0.268,9.889,3.196,9.889,4.66
		c-0.626,0.086,0.315,7.258-0.755,7.452c0.991,3.439,12.029,4.513,13.693,9.263c-0.719-0.175-1.471-0.354-2.223-0.548
		c0.39,1.367,2.892,3.504,3.847,4.789c7.981-3.669,2.405,2.638,2.169,6.088c0.82-0.458,1.661-0.551,2.491-0.276
		c-0.125,2.416-5.505,3.021-6.886,3.196c-4.266,0.512-8.969,4.112-13.597,6.278c-1.535-6.671,8.615-7.169,7.151-9.842
		c-2.563,0.673-5.014,1.789-7.938,2.291c-0.437-2.026,4.946-6.804-0.601-5.594c-1.152-4.445,2.767-3.704,5.458-4.077
		c0,0.351,0.089-4.205-0.902-4.084c0.394,1.317-4.95-1.417-1.278-1.9c-0.626-2.462-6.21,3.865-6.553-0.319
		c-0.115-0.895,0.902-4.359-1.117-4.621c0.401,0.816-0.122,1.074-1.55,0.773c1.829,0.272-2.52-6.958-2.437-7.079
		C352.671,253.716,353.862,252.195,353.104,249.242z M252.841,551.108c-7.956,7.112-17.201,7.895-14.513,18.987
		c0.991,4.03-0.472,11.66-2.498,15.784c-0.587,1.235-10.121,12.319-11.224,9.978c-2.133-0.007-10.254,2.172-11.195,1.65
		c-0.036-0.157-11.786,4.968-10.873,5.125c6.557,5.769-1.002,13.922-2.495,12.838c-3.923-2.874-4.71,6.371-5.297,6.303
		c0.694,1.843-10.902,2.656-16.446-1.396c2.305,3.533,5.494,8.962,7.695,9.313c2.294,6.51-15.859,1.611-15.383,1.704
		c1.747,0.88,2.731,3.851,3.554,5.562c-1.016-0.072-1.249,0.15-0.744,0.701c-2.029,0.276-5.018-3.207-6.879-2.341
		c0.283,0.297,0.283,0.372,0,0.243c0.505,0.591,5.891,4.943,5.297,3.983c0.952,0.211,1.582,0.852,1.815,1.886
		c-1.26-0.58-2.291-0.651-1.578-0.193c-2.759-0.387,0.161,3.722,0.845,4.595c-3.647-1.049-1.192,0.336-3.919,0.558
		c-0.129,1.661,8.693,6.525,9.513,6.757c-2.709-0.333-1.6,0.408-0.701,2.867c-4.119,1.059-0.827-0.476-3.056-1.145
		c0.573,2.416,3.54,3.672,5.934,5.207c0.089,0.011,0.225,0.032,0.412,0.05c-0.358-0.111,12.108,5.508,12.77,6.958
		c-1.278-0.63-2.609-1.052-3.991-1.346c0.394,0.215,0.78,0.408,1.142,0.619c-3.565-0.175-10.472-2.634-12.956-4.334
		c0.691,0.047-4.374-2.283-8.844-5.465c3.729,1.067-1.646-0.852-2.656-1.442c0.258,0.104,0.258,0.1,0.043-0.043
		c3.529,1.628-1.135-0.444,1.303,0.311c-4.925-3.819-6.142-4.434-11.009-9.252c-0.415-0.079-0.204-0.104-0.147-0.15
		c-0.021-0.021-0.039-0.039-0.068-0.068c0.086,0.032,0.086,0.05,0.068,0.068c0.054,0.057,0.097,0.093,0.147,0.15
		c0.157,0.025,0.387,0.057,0.769,0.104c-0.587-0.927-4.338-3.443-5.454-3.805c-0.147-0.168-0.662,2.104-1.858-1.478
		c2.849,0.358,2.892,1.614,4.871,1.986c-1.711-1.836-2.416-2.784-4.044-4.495c0.88,0.218,0.669-0.032-0.583-0.669
		c0.82,0.347-7.562-10.78-9.574-13.31c-6.886-8.629-4.943-17.942-12.459-29.846c-0.161-0.054-11.997-30.071-16.174-35.518
		c-8.275-10.78-12.788-19.556-18.003-30.977c-5.565-12.119-14.191-23.217-15.229-36.943c0.999,0.44-1.5-1.049,1.12,0.236
		c-0.329-5.623-2.462-7.24-1.228-13.3c0.505-2.452,0.39-6.704,3.783-5.286c-0.032-4.556,2.892-5.061,3.407-11.496
		c0.455-6.066,0.354-9.731-1.253-13.726c-1.271-0.923-2.484-2.283-3.629-3.937c-1.926,5.476-9.907-2.881-11.016-6.099
		c-0.032,0.168-6.764-7.992-5.186-11.714c-2.058-1.109-3.83-10.959-2.566-12.813c-7.996-4.077-10.798-12.33-14.363-20.995
		c-0.877-2.158-4.459-3.715-6.603-6.686c-4.746-6.525-6.568-14.713-7.237-22.598c-0.83-10.394,0.319-20.902,2.097-31.116
		c0.669-3.74,5.573-16.557,4.359-19.402c2.559-5.658,3.865-12.269,3.318-16.03c-6.482,13.293-6.374,28.324-11.041,42.179
		c-3.404-5.555,2.022-21.746,4.198-27.387c0.977,2.759,5.569-15.526,6.242-18.271c2.849-11.557,9.459-24.334,12.927-31.667
		c1.525-3.117,7.641-10.394,7.727-12.634c3.669-6.074,9.127-11.861,13.797-17.491c-0.036,0.086,6.013-11.303,4.71-3.425
		c0.029-1.306,9.853-14.688,9.882-14.724c0.877-4.406,6.525-4.459,7.953-9.313c-1.349,1.199,0.157-0.154-0.562,0.487
		c1.9-6.743,0.916,4.986,3.593-3.486c-0.225,0.236-0.265,0.218-0.107-0.111c-1.5,0.884,2.842-1.865-1.149,0.676
		c3.382-3.464,10.948-10.182,8.98-8.583c0.014-0.032-2.43,1.847-2.427,1.843c1.45-1.156,4.474-3.039,5.354-4.699
		c-0.233,0.369-0.555,0.512-0.948,0.472c4.388-3.418,12.409-8.321,15.068-13.153c-0.995,0.673-1.757,1.192-2.326,1.596
		c-0.769,0.913-3.024,2.14,0,0c0.186-0.211,0.286-0.412,0.211-0.544c-1.56,1.453-3.754,3.504-4.413,3.694
		c1.707-1.371,1.886-1.664,0.544-0.877c5.537-5.147,11.478-9.724,16.936-14.975c-0.039,0.043-0.1,0.104-0.14,0.15
		c0.605-1.8,5.666-4.391,7.219-5.741c-0.068,0.075-0.132,0.147-0.204,0.222c1.782-1.235,1.31-1.142,3.132-2.48
		c-12.14,6.911,1.432-0.748-4.628,2.774c1.858-0.902-3.715,1.858-4.23,2.38c1.636-1.661,6.414-4.724,4.835-3.078
		c-0.272,0.179-0.551,0.311,0.204-0.183c-0.064-0.004-0.319,0.086-0.966,0.39c2.283-1.428,4.409-2.824,6.764-4.177
		c-0.361,0.258-0.361,0.261,0,0.061c1.707-1.392-2.967,1.231-5.805,3.117c14.674-10.021,31.868-19.373,46.853-25.236
		c-0.175,0.082-0.258,0.118-0.286,0.14c1.915-0.959-0.086,0.018,0.215-0.072c-0.079,0.018-0.147,0.047-0.215,0.086
		c0.004,0.007-0.014,0.014,0.014,0.018c-0.007-0.011-0.014-0.018-0.025-0.025c-0.329,0.157-0.787,0.376-1.403,0.676
		c2.971-0.913-5.755,2.888-6.643,3.296c5.97-2.484,11.267-5.193,17.931-7.384c-0.866,0.437-1.739,0.863-2.62,1.274
		c0.233-0.075,0.233-0.075,0,0.054c0.322-0.143,0.233-0.054-0.311,0.247c1.288-0.408,3.672-1.206,4.91-0.945
		c-1.074,0.476-1.238,0.598-0.472,0.404c-0.361,0.29-0.279,0.344,0.19,0.204c-0.447,0.093-0.827,0.319-1.149,0.662
		c0.501-0.011,2.466-0.705,0.995,0.129c-0.594,0.175-9.875,1.374-3.321,1.374c-0.014,0.057,0.025,0.14,0.469,0.068
		c-3.722,2.419-9.613,4.488-13.493,8.35c0.122,0.143-1.17,0.709,0.523,0.258c-4.309,1.9-10.948,4.907-13.532,9.066
		c1.417-0.444,2.738-1.077,3.955-1.897c-0.433,0.132-0.734,0.397-0.905,0.787c1.149-0.48,2.251-0.608,3.601-1.099
		c-0.694,1.421-4.273,3.06-6.306,3.626c3.915-0.938,6.532-0.623,11.492-2.051c-9.119,3.558-8.901,8.683-14.685,15.476
		c0.44-0.651,0.991-0.791,1.632-0.408c-1.632,1.22-5.938,2.541-7.047,4.517c0.691,0.662,1.739,2.394,3.672,1.296
		c0.293,0.673-6.206,5.952-6.721,6.546c1.707-1.099,12.065-5.104,12.104-5.501c-2.652,1.467-2.011-0.032-4.119,0.716
		c0.44-0.351,0.397-0.515-0.15-0.462c1.983-2.319,4.946-0.286,5.82-0.769c-1.002,2.015-3.314,4.077-4.059,4.402
		c0.558,0.193,1.5,0.701,1.113,0.655c-1.174,0.748-0.981,1.8-1.407,3.046c-0.276,0.064,8.618,1.285,6.94-0.948
		c-2.026,3.057-1.868,3.726,0.483,2.001c-2.237,0.426-5.784,3.819-6.038,6.131c3.447,0,11.682-6.968,9.928-5.544
		c0.472-0.376,7.759-2.795,7.584-3.386c-0.905,0.322-1.854,0.437-2.842,0.308c0.669-0.755,1.292-2.126,1.743-2.613
		c-0.673,0.505-1.349,0.87-2.144,1.117c0.948-0.505,0.88-0.612-0.319-0.251c8.869-5.823,19.595-11.6,27.219-13.761
		c-3.089,1.807-31.288,19.76-28.79,23.682c1.858-1.428,4.989-4.603,7.666-3.837c-2.892,4.928-8.497,3.887-9.767,9.552
		c0.487-0.039,0.523,0.086,0.118,0.451c6.292,3.15,13.092-12.519,18.081-8.414c-1.607,1.056-5.669,6.142-7.086,8.804
		c-1.926,3.615-8.157,2.702-10.39,5.386c0-1.553,0.63-2.033,0.548-3.103c-0.358,0.286-1.632,4.055-2.967,3.522
		c-0.404-0.866-0.404-1.732,0.075-2.58c-1.575,0-4.774,4.069-5.927,3.404c2.051-1.915-1.346-2.308-0.873-4.069
		c-1.109,0.558-2.273,0.97-3.486,1.245c4.563,4.603,2.305,2.742-2.255,5.941c0.211-0.558-0.122-1.679-0.082-1.725
		c-7.824-4.621-35.636,18.196-29.058,25.554c2.86,3.203,2.151,11.829,4.263,16.331c2.162,4.613-0.963,13.84-5.186,18.035
		c5.408,3.11,21.71-17.122,22.956-20.454c0.462-1.228,7.172-14.155,8.368-12.97c2.015-2.538,3.772-5.243,5.934-7.67
		c4.735-5.315,5.275,1.861,10.565-1.324c1.918,2.971,2.087,5.913,0.508,8.826c1.07,0.086,2.14,0.165,3.207,0.243
		c-8.028-2.684-3.475,13.217-3.475,13.217c2.165-0.812,9.406-9.305,11.625-7.82c-2.924,3.883-2.101,6.714-3.64,10.028
		c0.744,0.039,1.421,0.286,2.058,0.698c-5.415,5.322-1.99,13.665,1.149,19.108c0.866-0.132,1.736-0.308,2.652-0.497
		c-0.598,0.974-0.333,1.578,0.748,1.84c-0.816,1.926-11.113,2.541-10.762,3.865c0.698,2.559,30.178-0.014,0.197,9.903
		c-6.589,2.176-12.781-0.966-18.822-0.061c-8.568,1.285-14.789,6.406-21.99,10.923c4.599,1.575,13.962-7.344,18.754-8.332
		c11.485-2.376-3.558,8.88-3.45,8.629c1.027,0.272,2.054,0.537,3.082,0.812c-0.351-1.077-0.87,9.323-0.823,9.237
		c2.087,0.612,4.234,0.873,6.439,0.78c-3.357,6.754,0.247-0.855-0.029,2.788c-3.629-0.823-12.938,7.144-15.268,5.741
		c-7.67-4.628,9.656-7.691,9.606-7.552c-1.79-0.501-7.448-0.007-6.925-2.545c-3.915,3.035-21.038,4.331-18.307,12.573
		c-5.873-1.861-9.474,0.251-13.543,4.245c-1.371,2.223-3.142,2.817-5.322,1.793c-1.26,2.541-0.447,6.274-4.234,6.89
		c0.852-2.14-0.841-2.187-1.249-1.031c0.297-0.841,2.133-8.099,1.403-7.53c-2.044,1.6-7.018,16.721-3.762,17.917
		c-1.177,3.167-1.858-1.328-2.559-1.049c-0.891,1.217-1.575,2.538-2.058,3.962c-2.684-1.009-12.265,5.966-14.91,7.083
		c-0.24,7.169-1.943,21.585-7.874,27.92c0.744-2.938-0.977-13.643-1.979-12.96c-0.19-1.084-5.454-22.852-7.738-16.56
		c-0.29-0.705-0.526-1.41-0.68-2.133c-0.544,1.46-2.931-0.805-4.95-0.601c1.732,0.974,1.188,4.599,0.311,5.794
		c-0.827-1.532-1.453-3.11-1.94-4.746c-1.034,2.774-8.611-4.449-9.488-6.256c-1.342,3.647-4.513,2.036-6.568,2.946
		c-3.121,1.353-4.903,11.507-5.816,14.241c-2.495,7.53-5.093,12.609-4.266,19.957c0.476,4.42,1.9,10.827,6.131,13.275
		c0.558-2.591,2.767-0.115,3.082,0.916c0.118-0.691,7.913-8.429,7.827-8.171c4.119,2.752,6.535-1.149,4.986,5.19
		c-0.483-0.268-3.797,8.976-3.88,9.9c-3.275-1.865-3.396,9.123-0.619,11.009c6.006,4.073,9.753,4.617,8.701,11.972
		c-2.258-1.192,1.825,18.103,8.439,27.702c0.193-0.537,0.344-1.163,0.401-1.994c1.475,2.223,2.491,4.105,3.225,5.927
		c2.742,1.994,5.741,1.951,8.801-1.729c3.447-4.119-0.154-4.009,5.272-5.873c2.169,0.891,3.278,0.698,3.325-0.555
		c0.379,0.154,1.256,0.297,1.296-0.104c1.782,0.601,8.031-3.991,1.589,2.634c1.525,0.562-0.605,10.376,1.578,9.084
		c6.321-3.844,17.598-0.519,19.098,0c2.305,0.755,9.807,1.747,8.307,1.306c2.81,0.691,7.63,4.263,7.756,5.519
		c6.378,1.349-2.677,5.161-3.865,5.361c4.699,1.124,17.441,0.168,13.915,10.089c0.021-1.832,13.801,7.788,13.872,3.429
		c3.014,1.446,4.993,1.575,7.641,4.635c2.956,3.454,7.863,5.186,9.706,9.638c0.243,0.54,0.762,6.986,2.026,7.18
		c0,1.396,2.18,1.671-0.19,5.054c1.342,0.251,1.102-1.489,3.078-0.791c-0.204,1.843-0.827,2.262-1.818,1.271
		c0.447,0.848,0.866,1.668,1.382,2.48c-3.311-0.476-3.271,0.039-6.045-0.397c0.036,0.523-0.111,1.235-0.583,1.185
		c0.233,5.594,2.011,2.738,2.011,3.06c2.33,0.361,2.137,4.105,4.914,4.495c-0.057-0.78,6.281-1.12,7.312-1.052
		c-0.24-6.689,11.227,1.675,13.246,3.153c5.53,4.084,1.85,3.064,8.26,3.779C217.05,523.335,267.321,538.023,252.841,551.108
		C244.888,558.22,267.321,538.023,252.841,551.108z M303.52,167.035c0.623,1.639,1.732,2.935,3.346,3.84
		c-1.342,0.097-5.526-0.712-3.397,2.555c0.315-0.752,1.303,5.963,3.518,6.8c-1.228,2.312-2.727,2.28-4.434-0.143
		c-0.63,2.731,0.276,3.737,2.699,2.974c-0.115,0.018-9.066,4.23-10.444,4.417c1.983,0.272,12.48,8.307,5.895,9.721
		c-1.371-0.651-2.742-1.292-4.109-1.943c-0.999,1.611-1.228,3.282-0.701,5.018c4.592,1.267,3.661,2.337,4.488,2.763
		c-10.064,10.358-39.251,13.192-41.649,28.883c0.397-2.283-9.545,11.27-11.27,12.727c-0.526,0.494-16.356-13.454-12.448-18.389
		c-0.007-1.861,0.995-2.838,3.006-2.928c-2.355-2.04-0.744-14.824,5.447-14.524c-0.734-0.047-4.724-1.052-4.148-1.467
		c11.796-8.461,7.967-5.859,1.138-11.61c2.151,1.829,12.849-0.512,11.707-4.667c-1.417-2.473-3.21-2.874-5.369-1.199
		c7.119-11.013,12.809-20.572-2.86-22.34c1.51-1.288,0.641-4.374,3.729-4.774c-0.283,0.172,5.487,0.333,6.474,0.004
		c-2.806,0.029-4.009-0.97-3.608-3.003c2.122-1.807,15.146-2.52,15.007-5.773c-1.654-0.791-2.799-2.072-3.443-3.851
		c0.147,2.555,17.612-2.591,18.708-2.355c-0.53,0.712-1.149,1.346-1.854,1.9c0.301-0.075,0.669-0.122,1.178-0.104
		c0,0.519-0.107,0.859,0.089,1.539c-0.011-0.05,6.564-6.585,2.591-2.86c-0.254,1.532,1.75,4.069,1.714,4.026
		c-4.331-3.865,13.615-8.572,13.926-8.686c0.315,0.211,0.079,0.87-0.361,1.621c1.084,1.267,2.169,2.545,3.253,3.812
		c-2.527-0.623-4.624,0.086-6.299,2.122c0.762-0.268,2.53-0.469,5.973-0.523c0.1,0.931-7.083,1.764-5.973,0.523
		c-1.342,0.49,14.134,1.686,13.328,0.523C300.946,152.232,304.737,165.281,303.52,167.035
		C304.139,168.674,304.737,165.281,303.52,167.035z M570.304,505.307c-0.068,0.143-0.19,0.315-0.458,0.544
		C570.043,505.687,570.161,505.493,570.304,505.307c0.297-0.659-1.088-0.54-0.859-0.515c-5.104,6.582-7.434,23.768-11.958,32.931
		c-0.34,0.651-8.257,12.283-8.654,9.638c-1.342,0.963,0-2.491-0.476-2.151c1.109-2.799-0.433-8.586,3.758-11.467
		c0.082-0.283,3.729-10.526,3.443-10.326c1.593-4.381,8.039-11.396,8.547-13.711c3.01-2.362,5.744-12.537,6.689-15.941
		c-0.319,1.811,0.83,2.062,0.633,4.553C570.183,499.377,572.029,503.045,570.304,505.307z M580.63,315.772
		c-0.15,1.614-0.236,9.148-1.9,1.02c-0.744,2.258-2.33,0.419-3.518-2.029c-2.054,5.386-5.766,7.18-9.291,11.696
		c-0.712-1.36-2.495-2.248-3.128-3.611c-1.496,1.875-3.955,12.985-8.103,3.593c-0.551,0.523-5.666-8.157-8.858-5.59
		c-3.443,2.756,8.772,17.008,11.224,17.956c-0.175-1.246-0.204-2.527-0.057-3.797c-0.036-0.175-0.036-0.301,0.018-0.351
		c-0.014,0.111-0.007,0.229-0.018,0.351c0.251,1.188,2.412,4.825,2.824,5.44c3.454-4.527,4.595-6.406,4.08-13.64
		c2.523,6.159,4.538,4.556,7.52,7.022c0.981-1.328,4.266,11.868,4.306,12.344c0.2,5.229-0.748,10.497-2.094,15.501
		c-3.318,12.036-10.601,26.413-18.267,31.639c-4.717-13.926-14.595-18.282-18.715-31.005c-0.587,0.333-16.936-14.792-17.054-15.2
		c-7.86,4.13,7.634,16.403,9.341,20.086c4.95-2.652,9.209,17.183,11.979,17.917c2.888,0.759,3.121,0.125,3.923,3.447
		c-4.119,2.477,9.008,7.319,9.134,7.437c2.022,1.75,7.004,12.19,7.627,11.736c4.238,0.544,7.086-14.037,12.337-13.668
		c-6.446,6.052-7.677,21.353-9.399,29.352c-3.371,15.418-6.059,30.951-8.597,46.502c-0.469,3.164-1.811,23.851-3.278,24.731
		c-0.823,6.729,2.412,11.743-1.031,19.474c-5.769,12.931-16.138,20.597-20.018,34.233c-0.748,0.437-3.822,11.485-7.509,14.681
		c-6.568,5.673-6.918,12.788-12.344,19.241c-6.167,7.362-14.828,12.022-23.049,16.664c-6.693,3.79-15.311,7.355-21.084,9.778
		c3.565-8.829,3.679-11.031-1.535-17.938c0.107-0.53-0.798-4.699-0.129-4.907c4.112-16.413-10.204-22.405-0.233-38.911
		c10.673-17.652,3.49-32.598-12.029-43.7c0.759,0.075,1.306-0.225,1.586-0.873c-0.866,0.229-2.802-1.611-3.565-1.428
		c-0.268-8.293,6.85-14.323,3.443-23.274c-2.219,0.515-3.683,2.262-3.282-1.056c-1.539,0.39-2.326,1.331-3.482,1.568
		c0.086,0.909-15.934,3.411-10.354-1.131c-0.952-3.729-8.192-3.089-10.719-2.595c0.111-0.354,0.311-0.659,0.634-0.905
		c-3.411,0.734-7.681,5.58-10.49,5.555c-0.115-2.72-0.387-1.449-3.948-1.417c3.357,1.582-16.174,9.259-20.522,8.4
		c-4.553-0.898-15.791,5.687-18.854,4.331c0,0.673-23.353-15.014-26.707-19.355c-1.432-1.843-7.559-6.689-7.634-8.89
		c-5.422,0.58-5.762-7.906-8.901-11.252c12.974-1.131-5.805-37.154,4.989-37.709c-0.44-5.834,17.433-26.836,22.222-29.695
		c4.663-2.81-2.455-6.363,1.535-10.737c0.286-0.909,7.119-9.764,7.366-8.056c1.417-0.157,3.915-3.636,3.873-4.828
		c-0.204-9.255,5.261-2.609,8.94-4.238c0.469,2.613,24.563-11.27,27.687-11.038c7.004,0.537,18.937-5.53,27.437-6.181
		c0.322,1.099,1.432,6.367,2.183,6.331c2.212,3.973-1.181,2.666-0.361,5.891c-1.657,0.397,18.632,4.499,18.743,4.595
		c3.407,3.643,7.212,1.883,11.242,3.024c3.833,1.092,12.022-2.645,6.245-6.245c-7.387-4.613,11.904-6.625,12.38-6.75
		c1.059,5.873,26.148-6.85,26.181-6.904c3.328-8.887,1.142-19.631-3.88-26.739c-4.098,2.212-9.917,7.874-15.497,10.354
		c-0.358-2.77-9.263,0.419-10.683-5.998c2.695,0.422-0.075-5.991-2.648-3.715c-1.263-2.706,4.069-9.749,6.406-9.943
		c-5.938-2.208,7.362-7.412,9.606-10.877c1.593,2.33,9.144,0.53,10.998-1.167c9.341-8.651-13.636-13.973-14.667-12.512
		c-1.815-3.046,2.684-3.962-1.861-6.55c0.744-0.941,1.861-3.704,1.861-4.864c0,1.145-6.485,8.829-8.711,9.391
		c4.513,6.904,12.469-3.257,3.729,8.661c-1.507-1.707-1.618-4.062-4.277-2.738c-0.125-1.568,0.501-2.706,1.9-3.447
		c-2.613-3.45-4.549,3.25-6.689-0.157c1.256-0.583,1.303-0.827-0.39-1.757c0.268,0.497-1.628,10.662-0.995,12.82
		c2.727,9.81,9.807,11.646,1.578,19.896c-0.716-1.396-7.076-3.021-8.264-0.891c-0.601,1.12,2.412,1.929,2.699,2.473
		c-0.444,0.068-2.298,1.296-1.152,2.101c-1.31-0.297-2.384-0.92-3.289-1.861c1.306,1.89,2.251,3.525,4.155,5.619
		c-0.63,0.007-1.22-0.047-1.822-0.136c0.236,0.508,0.687,2.097,0.73,2.398c-0.175-0.641,5.594-0.519,7.545,1.578
		c-0.24,0.039-0.286,0.15-0.125,0.333c-2.011-0.659-4.037-1.278-6.095-1.822c1.628,1.11,3.096,2.391,4.438,3.822
		c-1.779-0.079-1.382-0.591-2.849-0.047c0.433,0.752,1.07,1.242,1.9,1.51c-1.242,0.437-4.195,4.352-4.553,3.515
		c-6.6,0.043-0.279-4.871,1.5-5.404c-6.313,2.198-14.738-8.146-16.442-12.154c-1.356,0.469-10.139-7.154-13.65-4.757
		c0.472,1.167-8.951-6.517-8.987-6.539c0.397,2.108-0.78,2.477-0.319,3.694c0.086,0.258-2.842-4.399-2.92-4.613
		c0.322,0.73-3.275,2.155-3.554,2.226c1.303,3.221,4.628,6.245,7.112,8.511c4.706,4.241,18.153,4.513,20.458,10.318
		c-2.738,0.888-6.009-0.422-6.174-1.965c0.197,1.897,8.901,12.552,1.535,13.497c-3.826-5.888,0.326-5.147-6.514-7.913
		c-4.513-1.84-8.314-5.261-12.108-8.185c-3.479-2.67-7.473-6.031-11.986-6.7c-5.616-0.834-0.311,2.162-4.502,3.021
		c0.988,2.709-8.783,3.572-10.172,3.665c-4.714,0.351-2.015,4.259-2.248,7.026c-11.031,2.101-7.48,18.303-14.083,24.219
		c-8.024,7.237-19.538,0.619-28.987,3.944c-3.876-8.436-0.086-16.6-4.821-26.442c4.656-0.523,7.072-3.461,13.207-3.751
		c4.141-0.183,12.298,1.106,15.741-1.331c5.397-3.772-6.41-15.111-8.285-15.869c-0.437-0.115-8.872-2.903-8.847-2.852
		c0.827-0.186,2.774-1.965-0.197-2.466c0.723,0.075,9.653-2.656,9.653-2.552c0-1.729-0.433-3.357-1.349-4.878
		c1.747-1.185,12.824,1.084,9.86-7.91c3.035-0.973,5.003-1.661,7.942-2.681c-2.448-6.854,2.656-9.917,8.332-8.321
		c-0.533-0.737,2.935-7.419,0.891-6.976c-1.152-2.538-7.52-8.217-6.922-10.508c1.181-0.465,2.366-0.841,3.561-1.117
		c-1.908-4.051-1.908,0.601-3.561-2.695c1.228-0.297,3.321-2.663,3.397-3.88c0.905,1.507,1.238,3.06,0.039,3.998
		c0.283,0.268,0.361,0.251,0.233-0.064c1.077,0.122,4.23,2.079,4.198,3.332c-0.039,2.895-0.945,4.578,0.433,6.292
		c1.496,1.475,3.16,6.077,6.847,4.595c-1.442-1.872,13.446-5.777,16.263-7.806c-0.258-0.061-0.365-0.197-0.132-0.49
		c0.157,0.369,0.311,0.315,0.591-0.19c0.093,0.19-0.104,0.419-0.458,0.676c0.68,0.154,2.473-0.268,2.684-0.197
		c1.296-3.257-1.786-2.645-0.211-5.902c0.276,0.476,0.44,0.795,0.548,1.041c-0.007-0.347,0.136-0.766,0.802-0.981
		c-0.705-1.07-5.662-10.164-4.588-10.189c1.421-0.082,2.81,1.764,4.352,1.163c3.2-1.213-4.47-8.794-5.025-9.871
		c-0.988-1.926,5.619-3.286,4.47-4.746c0.866,0.018,1.736,0,2.613-0.086c-0.877-1.786,0.591-3.436,2.881-3.84
		c-1.299-0.211-7.387-1.628-6.836-1.847c-1.9-2.079-4.313,5.981-5.064,6.292c1.102,1.503-3.167-0.816-3.003-0.866
		c0.193,0.143,0.193,0.233,0,0.261c0.626,0.88,0.827,0.827-0.043,1.478c-0.83-1.052-1.9-1.095,0.043-2.23
		c-0.447-0.551-5.372-2.985-2.577-0.304c-4.821,1.836-12.061-17.247-9.721-18.962c-3.368-3.711-5.701-1.503-8.622-3.103
		c1.496,1.947,5.458,19.273,3.876,19.742c2.802,4.159,18.307,12.77,7.23,15.304c1.829,2.988,5.343,8.611,5.895,7.899
		c0.279,0.433-3.447,8.114-4.989,8.783c-1.059,0.49-11.235-12.68-13.872-14.198c-0.361-0.197-5.737,5.938-5.891,5.97
		c2.137,3.926-10.096-5.526-7.24-5.19c-2.652-0.326,0,1.5-1.113,1.711c-0.408-0.845-2.921-7.806-4.842-8.16
		c-0.086,0.215-0.233,0.376-0.809,0.311c0.251-0.276,0.523-0.365,0.809-0.311c0.161-0.408,0.104-0.981,2.215-0.49
		c-1.382-0.78-6.761-5.283-1.385-5.873c-0.061-0.501-0.057-0.973,0.036-1.356c-0.154,0.272-0.165,0.258,0.072-0.29
		c-0.036,0.079-0.047,0.193-0.072,0.29c0.372-0.662,1.607-3.053,2.459-3.994c-1.807-2.151-0.959-2.988,2.559-2.495
		c0.351-0.304,0.712-0.594,1.013-0.877c0.097-0.877-2.291-3.601-1.779-3.74c0.311,0.48,2.337-4.595,2.727-7.208
		c-0.061-0.082-0.115-0.161-0.193-0.258c0.097,0.025,0.157,0.047,0.229,0.068c0.047-0.379,0.057-0.705,0.011-0.938
		c-0.197-0.941-6.21-18.035-5.576-18.303c-0.354-0.372,1.743,0.741,1.743,0.633c-0.204-1.385-2.81-2.298,0.472-1.671
		c-1.349-0.251-1.263-0.447,1.267-0.626c-1.067-0.322,1.063-1.199,1.063-1.199c-4.191-4.234,2.248-1.865,4.427-0.451
		c-0.669-0.401-1.933-4.341-1.453-5.598c-1.868-4.549,16.642,1.575,18.393,3.132c-1.074-0.841,21.356,4.492,16.897,7.494
		c0.261,0.229-0.061,0.873,0.301,1.156c-3.031,1.36-11.27,1.07-14.151,0.093c3.515,3.096,18.933,12.015,23.092,9.681
		c0.036-3.504-2.495-5.63-7.595-6.378c2.301,1.911,4.649,2.115,7.036,0.612c-2.774-2.23-4.986-4.513-7.036-7.358
		c0.254-0.154,0.995,0.225,1.6,0.598c-0.265-0.193-0.544-0.394-0.966-0.701c1.185,0.623,2.419,0.909,3.762,0.909
		c-4.914-3.815-8.593-7.083-13.568-10.236c5.608-3.858,11.346,8.926,14.241,6.757c-0.587-5.34-2.656-9.817-6.21-13.432
		c1.521,1.954,3.275,2.387,5.254,1.303c-3.082-4.717-2.09-5.823,2.981-3.314c-20.422-3.633-3.715-9.373,3.357-6.095
		c-0.157,0.233-28.289-11.703-29.187-15.558c16.288,0.573,10.676,2.91,13.962,2.183c0.583,0.225-0.913-1.16,0.115-1.031
		c-0.734-0.336-9.384-2.566-9.019-4.216c4.417-2.326,9.191-1.049,14.32,3.837c-0.555-0.512-1.152-0.92-1.822-1.224
		c3.243,1.238,2.495,0.036,4.438-0.447c-7.835-2.874-19.309-2.319-28.521-9.309c0.243,0.061,0.927,0.054,1.496-0.036
		c-1.092-0.068-32.605-11.95-33.167-12.774c-3.593-0.229,7.197-0.122,6.589-0.193c-1.89-1.575-3.983-2.258-6.278-2.044
		c5.616-3.064,37.222,8.139,30.651,6.732c-4.066-1.893-8.26-3.361-12.58-4.409c0.24,0.068,0.472,0.115,0.712,0.179
		c-0.83-0.551-1.671-0.827-2.566-1.271c0.218,0.032,0.379,0.061,0.573,0.089c-1.56-0.984-3.368-1.739-5.118-2.287
		c18.203,2.198,2.487,0.204,2.366,0.154c-0.265-0.039-0.229-0.039-0.018-0.014c-0.186-0.068-0.154-0.075,0.175-0.025
		c-0.018-0.172-0.043-0.344-0.075-0.515c-2.838-0.39-1.657-0.73-5.268-1.994c3.525,0.501-1.02-0.533,1.983-0.197
		c-1.113-0.462-2.258-0.777-3.439-0.938c2.09,0.601,1.75,0.455,0.784,0.308c0.197,0.064,0.211,0.068-0.061-0.011
		c0.021,0.004,0.039,0.007,0.061,0.011c-10.053-3.228-9.109-3.404-26.571-5.737c0.344,0.029,0.562,0.043,0.762,0.057
		c-2.237-0.351-2.237-0.351,0,0c58.553,8.139,113.18,35.522,156.107,75.754c-0.054-0.068-0.086-0.125-0.054-0.136
		c2.394,2.029,1.478,1.414,0.676,0.734c4.957,4.674,9.796,9.47,14.427,14.477c39.087,42.2,72.386,102.267,76.509,159.861
		c-1.274-16.789-7.917-30.891-14.685-47.558c0.92,3.257,1.543,6.546,1.901,9.878C581.771,323.099,581.7,320.021,580.63,315.772
		C580.479,317.387,581.7,320.021,580.63,315.772z"/>
</g>
<g id="Layer_1_1_">
</g>
</svg>
