<?xml version="1.0" ?><!DOCTYPE svg  PUBLIC '-//W3C//DTD SVG 1.1//EN'  'http://www.w3.org/Graphics/SVG/1.1/DTD/svg11.dtd'><svg height="40px" style="enable-background:new 0 0 40 40;" version="1.1" viewBox="0 0 40 40" width="40px" xml:space="preserve" xmlns="http://www.w3.org/2000/svg" xmlns:xlink="http://www.w3.org/1999/xlink"><g id="co_x5F_holiday"><path d="M21.706,12.581c-0.731-0.259-1.495,0.095-1.736,0.764c-0.241-0.669-1.005-1.023-1.736-0.764   c-1.079,0.382-0.845,1.469-2.284,1.319c-0.219-0.023-0.371,0.24-0.212,0.393c0.686,0.66,1.937,1.024,2.907,0.905   c0.61-0.075,1.132-0.428,1.324-0.956c0.192,0.528,0.714,0.881,1.324,0.956c0.97,0.119,2.221-0.246,2.907-0.905   c0.159-0.153,0.007-0.416-0.212-0.393C22.552,14.05,22.785,12.963,21.706,12.581z M27.515,35H26c-0.552,0-1.134-0.464-1-1   c0.141-0.563,0.086-1.125,0-1.502c-0.108-0.476-0.409-0.877-0.897-0.853l-2.104,0.105c-0.56,0.028-0.885,0.502-0.999,1.05   c-0.161,0.773-0.172,2.371,0,3.2c0.225,1.082,0.928,1.735,2,2c1.129,0.279,3.386,0.276,4.515,0C28.312,37.805,29,37.335,29,36.515   v-0.03C29,35.665,28.335,35,27.515,35z M13.485,10c0,0,1.031,0.113,2.696,0.2c0.252,0.474,0.745,0.8,1.319,0.8   c0.538,0,1.006-0.285,1.271-0.711c0.387,0.006,0.786,0.011,1.2,0.011c0.434,0,0.853-0.004,1.259-0.012   C21.494,10.714,21.962,11,22.5,11c0.575,0,1.068-0.327,1.32-0.802C25.476,10.111,26.515,10,26.515,10C27.335,10,28,9.335,28,8.515   v-0.03C28,7.665,27.335,7,26.515,7c0,0-3.182,0.408-6.557,0.408c-0.779,0-1.542-0.022-2.258-0.056L17,7.3   c3.203-0.212,5.159-0.749,7.064-1.33c0.443-0.135,0.67-0.632,0.475-1.052C23.742,3.197,21.981,2,20,2c-1.813,0-4.219,0.2-5.217,0.5   c-0.704,0.211-1.194,0.671-0.713,1.227c0.211,0.244,0.912,0.916,0.912,0.916c0.219,0.292,0.305,0.67,0.206,1.021   c-0.069,0.242-0.119,0.491-0.15,0.746c-0.05,0.418-0.429,0.717-0.847,0.672C13.743,7.034,13.485,7,13.485,7   C12.665,7,12,7.665,12,8.485v0.03C12,9.335,12.665,10,13.485,10z M31.607,13.263c-0.296-0.25-0.739-0.212-0.988,0.085l-0.167,0.199   C30.209,13.834,29.853,14,29.477,14h-3.016c-0.434,0-0.84,0.245-1.018,0.641C24.12,17.59,20.796,18.677,20,19.075   c-0.794-0.397-4.097-1.478-5.43-4.404C14.385,14.265,13.985,14,13.538,14H13.34c-0.576-1.749-1.601-3-3.382-3   C6.644,11,2,15.301,2,19.167S4.686,25,8,25c1.504,0,2.877-0.408,3.929-1.213c0.293-0.225,0.083-0.685-0.279-0.612   c-0.243,0.049-0.493,0.075-0.75,0.075c-2.209,0-4-1.869-4-4.175c0-0.39,0.053-0.767,0.151-1.124   c0.12-0.437,0.724-0.473,0.892-0.053l0.579,1.446c0.244,0.607,0.824,0.998,1.478,0.998c0.654,0,1.234-0.392,1.479-1.001l0.39-0.977   C11.958,18.145,12.171,18,12.409,18h0.01C12.74,18,13,18.26,13,18.581v2.274c0,0.67,0.497,1.232,1.162,1.314   c0.859,0.106,2.17,0.232,3.838,0.294v-0.088c0-0.517,0.432-0.927,0.948-0.902c0.315,0.015,0.703,0.027,1.152,0.027   c0.358,0,0.682-0.01,0.957-0.024C21.573,21.449,22,21.861,22,22.378v0.084c1.656-0.062,2.973-0.189,3.836-0.295   C26.502,22.086,27,21.524,27,20.853v-1.837C27,18.455,27.455,18,28.016,18h2.003c1.212,0,2.362-0.535,3.143-1.462l0.516-0.613   c0.25-0.296,0.212-0.739-0.085-0.988L31.607,13.263z M28.515,27h-0.023c-0.436,0-0.817-0.297-0.923-0.72l-0.349-1.395   c-0.124-0.497-0.595-0.824-1.103-0.76c-0.869,0.11-2.326,0.262-4.118,0.335v0.11c0,0.482-0.344,0.791-0.855,0.903   C20.862,25.534,20.402,25.6,20,25.6c-0.481,0-0.814-0.072-1.15-0.134c-0.49-0.091-0.85-0.423-0.85-0.903v-0.104   c-1.792-0.072-3.25-0.225-4.118-0.335c-0.508-0.064-0.979,0.264-1.103,0.76L12.43,26.28C12.324,26.703,11.944,27,11.507,27h-0.022   C10.665,27,10,27.665,10,28.485v0.03C10,29.335,10.665,30,11.485,30c0,0,3.515,0.7,8.515,0.7s8.515-0.7,8.515-0.7   C29.335,30,30,29.335,30,28.515v-0.03C30,27.665,29.335,27,28.515,27z M37.368,9.257L37.34,9.233   C36.55,8.585,35.384,8.7,34.736,9.49l-0.389,0.474c0.013-0.207-0.053-0.413-0.217-0.548L34.122,9.41   c-0.279-0.229-0.691-0.188-0.919,0.091l-0.601,0.733c-0.561,0.684-0.461,1.693,0.223,2.254l0.22,0.18l-0.003,0.036l1.315,0.986   c0.584,0.479,1.446,0.394,1.925-0.19l1.345-1.64C38.273,11.07,38.158,9.905,37.368,9.257z M17.951,31.75l-2.104-0.105   c-0.488-0.024-0.788,0.377-0.897,0.853c-0.086,0.377-0.141,0.94,0,1.502c0.134,0.536-0.448,1-1,1h-1.515   c-0.82,0-1.485,0.665-1.485,1.485v0.03c0,0.82,0.688,1.29,1.485,1.485c1.129,0.276,3.386,0.279,4.515,0   c1.072-0.265,1.775-0.918,2-2c0.172-0.829,0.161-2.427,0-3.2C18.835,32.252,18.51,31.778,17.951,31.75z"/></g></svg>